<svg id="Layer_1" data-name="Layer 1" xmlns="http://www.w3.org/2000/svg" viewBox="0 0 226.69 252.42"><defs><style>.cls-1{fill:#711626;}</style></defs><path class="cls-1" d="M375.22,225.31v5.2a18.9,18.9,0,0,0-15.57-7.81c-20.94,0-33.89,22.28-33.89,42.91,0,8.17,2,15.27,5.83,20.53,4.42,6.1,11,9.32,19,9.32a32.22,32.22,0,0,0,24.63-10.25v18.2c0,16.77-3.69,44.9-28.4,44.9-6.45,0-14.36-3.71-16.5-11.84a10.72,10.72,0,0,1,5.28-12.67,3,3,0,0,0-3-5.23h0a16.47,16.47,0,0,0-8.74,13.58,18.82,18.82,0,0,0,.61,5.84,22.64,22.64,0,0,0,22.3,16.32c22.18,0,34.4-18.08,34.4-50.9v-78.1Zm-24.63,64.15c-6.1,0-10.85-2.3-14.14-6.84-3-4.17-4.69-10.21-4.69-17,0-22.8,14.47-36.91,27.89-36.91,8.84,0,12.42,7,15.08,13.46l.49,1.17v32.29C370.89,282.22,364.13,289.46,350.59,289.46Z" transform="translate(-175.05 -162.1)"/><path class="cls-1" d="M289.06,333.5c-18.33,0-31.14-18.38-31.14-44.69,0-26.74,12.51-44.7,31.14-44.7,18.34,0,31.14,18.38,31.14,44.7C320.2,316.38,308.27,333.5,289.06,333.5Zm0-83.39c-17.37,0-25.14,19.44-25.14,38.7,0,18.63,7.87,38.69,25.14,38.69,18.54,0,25.14-20,25.14-38.69C314.2,262.08,301.58,250.11,289.06,250.11Z" transform="translate(-175.05 -162.1)"/><path class="cls-1" d="M260.38,328.89a3,3,0,1,0-5.06,3.22,9.38,9.38,0,0,1,.16,9.8,11.36,11.36,0,0,1-9.49,6,4.48,4.48,0,0,1-3.87-1.56c-4.53-5.55-.61-24.62,3.19-43.05,5.53-26.86,11.8-57.31-.31-72.17-4.79-5.87-12-8.84-21.54-8.84-10.5,0-18.38,5.86-23.23,10.92v-7.92h-6v126h6V242.8c1.91-2.88,10.39-14.49,23.23-14.49,7.73,0,13.25,2.16,16.88,6.63,10.32,12.65,4.36,41.62-.91,67.17-4.63,22.51-8.29,40.29-2,48.05a10.43,10.43,0,0,0,8.52,3.77,17.29,17.29,0,0,0,14.75-9.14A15.23,15.23,0,0,0,260.38,328.89Z" transform="translate(-175.05 -162.1)"/><path class="cls-1" d="M309.52,350H273.16a3,3,0,0,1,0-6h36.36a3,3,0,0,1,0,6Z" transform="translate(-175.05 -162.1)"/><path class="cls-1" d="M288.4,170.1a22.15,22.15,0,0,1,11.09,3l83.16,48a22.24,22.24,0,0,1,11.09,19.21v96a22.24,22.24,0,0,1-11.09,19.21l-83.16,48a22.16,22.16,0,0,1-22.18,0l-83.17-48a22.24,22.24,0,0,1-11.09-19.21v-96a22.24,22.24,0,0,1,11.09-19.21l83.17-48a22.12,22.12,0,0,1,11.09-3m0-8a30.12,30.12,0,0,0-15.09,4l-83.17,48a30.18,30.18,0,0,0-15.09,26.14v96a30.18,30.18,0,0,0,15.09,26.14l83.17,48a30.14,30.14,0,0,0,30.18,0l83.16-48a30.18,30.18,0,0,0,15.09-26.14v-96a30.18,30.18,0,0,0-15.09-26.14l-83.16-48a30.12,30.12,0,0,0-15.09-4Z" transform="translate(-175.05 -162.1)"/></svg>