<svg id="Layer_1" data-name="Layer 1" xmlns="http://www.w3.org/2000/svg" viewBox="0 0 226.69 252.42"><defs><style>.cls-1{fill:#fff;}.cls-2{fill:#711626;}</style></defs><path class="cls-1" d="M288.4,411.19a26.15,26.15,0,0,1-13.09-3.51l-83.17-48A26.26,26.26,0,0,1,179.05,337V241a26.26,26.26,0,0,1,13.09-22.68l83.17-48a26.16,26.16,0,0,1,26.18,0l83.16,48A26.24,26.24,0,0,1,397.74,241v96a26.24,26.24,0,0,1-13.09,22.68l-83.16,48A26.15,26.15,0,0,1,288.4,411.19Z" transform="translate(-175.05 -162.77)"/><path class="cls-2" d="M288.4,170.77a22.25,22.25,0,0,1,11.09,3l83.16,48A22.24,22.24,0,0,1,393.74,241v96a22.25,22.25,0,0,1-11.09,19.22l-83.16,48a22.19,22.19,0,0,1-22.18,0l-83.17-48A22.25,22.25,0,0,1,183.05,337V241a22.24,22.24,0,0,1,11.09-19.21l83.17-48a22.22,22.22,0,0,1,11.09-3m0-8a30.22,30.22,0,0,0-15.09,4l-83.17,48A30.17,30.17,0,0,0,175.05,241v96a30.2,30.2,0,0,0,15.09,26.15l83.17,48a30.2,30.2,0,0,0,30.18,0l83.16-48A30.2,30.2,0,0,0,401.74,337V241a30.17,30.17,0,0,0-15.09-26.14l-83.16-48a30.22,30.22,0,0,0-15.09-4Z" transform="translate(-175.05 -162.77)"/><path class="cls-2" d="M375.22,226v5.21a18.9,18.9,0,0,0-15.57-7.82c-20.94,0-33.89,22.28-33.89,42.92,0,8.16,2,15.26,5.83,20.53,4.42,6.09,11,9.32,19,9.32a32.26,32.26,0,0,0,24.63-10.25v18.19c0,16.77-3.69,44.9-28.4,44.9-6.45,0-14.36-3.7-16.5-11.84a10.71,10.71,0,0,1,5.28-12.66,3,3,0,0,0-3-5.23h0a16.45,16.45,0,0,0-8.74,13.57,18.76,18.76,0,0,0,.61,5.84A22.64,22.64,0,0,0,346.82,355c22.18,0,34.4-18.08,34.4-50.9V226Zm-24.63,64.16c-6.1,0-10.85-2.31-14.14-6.84-3-4.18-4.69-10.22-4.69-17,0-22.8,14.47-36.92,27.89-36.92,8.84,0,12.42,6.95,15.08,13.46l.49,1.18v32.28C370.89,282.89,364.13,290.14,350.59,290.14Z" transform="translate(-175.05 -162.77)"/><path class="cls-2" d="M289.06,334.18c-18.33,0-31.14-18.38-31.14-44.7,0-26.73,12.51-44.69,31.14-44.69,18.34,0,31.14,18.37,31.14,44.69C320.2,317.05,308.27,334.18,289.06,334.18Zm0-83.39c-17.37,0-25.14,19.43-25.14,38.69,0,18.64,7.87,38.7,25.14,38.7,18.54,0,25.14-20,25.14-38.7C314.2,262.75,301.58,250.79,289.06,250.79Z" transform="translate(-175.05 -162.77)"/><path class="cls-2" d="M260.38,329.56a3,3,0,0,0-5.06,3.23,9.36,9.36,0,0,1,.16,9.79,11.36,11.36,0,0,1-9.49,6c-2.33,0-3.33-.88-3.87-1.55-4.53-5.56-.61-24.62,3.19-43.05,5.53-26.87,11.8-57.32-.31-72.18C240.21,226,233,223,223.46,223c-10.5,0-18.38,5.87-23.23,10.93V226h-6V352h6V243.47c1.91-2.88,10.39-14.49,23.23-14.49,7.73,0,13.25,2.17,16.88,6.63,10.32,12.66,4.36,41.62-.91,67.17-4.63,22.51-8.29,40.29-2,48.06A10.42,10.42,0,0,0,246,354.6a17.28,17.28,0,0,0,14.75-9.13A15.24,15.24,0,0,0,260.38,329.56Z" transform="translate(-175.05 -162.77)"/><path class="cls-2" d="M309.52,350.62H273.16a3,3,0,1,1,0-6h36.36a3,3,0,0,1,0,6Z" transform="translate(-175.05 -162.77)"/><path class="cls-2" d="M288.4,170.77a22.25,22.25,0,0,1,11.09,3l83.16,48A22.24,22.24,0,0,1,393.74,241v96a22.25,22.25,0,0,1-11.09,19.22l-83.16,48a22.19,22.19,0,0,1-22.18,0l-83.16-48A22.24,22.24,0,0,1,183.05,337V241a22.24,22.24,0,0,1,11.09-19.21l83.17-48a22.22,22.22,0,0,1,11.09-3m0-8a30.22,30.22,0,0,0-15.09,4l-83.17,48A30.17,30.17,0,0,0,175.05,241v96a30.2,30.2,0,0,0,15.09,26.15l83.17,48a30.2,30.2,0,0,0,30.18,0l83.16-48A30.2,30.2,0,0,0,401.74,337V241a30.17,30.17,0,0,0-15.09-26.14l-83.16-48a30.22,30.22,0,0,0-15.09-4Z" transform="translate(-175.05 -162.77)"/></svg>